<?xml version="1.0" encoding="UTF-8"?>
<svg width="24px" height="21px" viewBox="0 0 24 21" version="1.1" xmlns="http://www.w3.org/2000/svg" xmlns:xlink="http://www.w3.org/1999/xlink">
    <title>6B3787F8-EFED-4B3D-ADD0-5CA5990E9EEC</title>
    <g id="Page-1" stroke="none" stroke-width="1" fill="none" fill-rule="evenodd" stroke-linecap="round" stroke-linejoin="round">
        <g id="st-d.home--selected" transform="translate(-408.000000, -441.000000)" stroke="#C5D3E8" stroke-width="2">
            <g id="card" transform="translate(140.000000, 124.000000)">
                <g id="Group-2" transform="translate(225.000000, 312.000000)">
                    <g id="heart" transform="translate(44.000000, 6.000000)">
                        <path d="M19.84,1.61 C18.8084758,0.577991468 17.409138,-0.00182562119 15.95,-0.00182562119 C14.490862,-0.00182562119 13.0915242,0.577991468 12.06,1.61 L11,2.67 L9.94,1.61 C7.79161231,-0.538387622 4.30838771,-0.538387596 2.16000006,1.61000006 C0.0116124038,3.75838771 0.0116123778,7.24161231 2.16,9.39 L3.22,10.45 L11,18.23 L18.78,10.45 L19.84,9.39 C20.8720085,8.3584758 21.4518256,6.95913803 21.4518256,5.5 C21.4518256,4.04086197 20.8720085,2.6415242 19.84,1.61 Z" id="Path"></path>
                    </g>
                </g>
            </g>
        </g>
    </g>
</svg>