<?xml version="1.0" encoding="UTF-8"?>
<svg width="72px" height="60px" viewBox="0 0 72 60" version="1.1" xmlns="http://www.w3.org/2000/svg" xmlns:xlink="http://www.w3.org/1999/xlink">
    <title>8A2D38BE-FD6A-4540-9E4F-D4DC8DF81A77</title>
    <g id="Page-1" stroke="none" stroke-width="1" fill="none" fill-rule="evenodd">
        <g id="st-d.home--selected" transform="translate(-34.000000, -50.000000)">
            <g id="nav" transform="translate(20.000000, 20.000000)">
                <g id="logo" transform="translate(14.000000, 30.000000)">
                    <g id="blob" fill-rule="nonzero">
                        <path d="M69.3861941,12.6436353 C75.0978255,24.5968649 65.2322804,46.6922288 50.9161133,55.0957114 C36.5257692,63.4267503 17.6848033,58.2107955 8.19014327,49.3002062 C-1.30451675,40.4620606 -1.45287081,28.0017243 2.25598076,18.5840282 C5.96483233,9.23877594 13.6050666,2.93616395 28.0695877,0.762849473 C42.4599317,-1.41046501 63.6745627,0.617961841 69.3861941,12.6436353 Z" id="Path" fill="#F6C937" transform="translate(35.516617, 29.643714) scale(-1, -1) translate(-35.516617, -29.643714) "></path>
                        <path d="M66.7299989,14.5999998 C72.1199988,26.1499996 62.8099989,47.4999992 49.2999992,55.6199991 C35.7199994,63.6699989 17.9399997,58.629999 8.97999986,50.0199992 C0.0200000167,41.4799993 -0.119999981,29.4399995 3.37999996,20.3399997 C6.8799999,11.3099998 14.0899998,5.21999995 27.7399995,3.11999998 C41.3199993,1.02000002 61.339999,2.97999998 66.7299989,14.5999998 Z" id="Path" fill="#FF0066"></path>
                    </g>
                    <text id="St" font-family="SansitaOne, Sansita One" font-size="40" font-weight="normal" fill="#FFFFFF">
                        <tspan x="21" y="41">St</tspan>
                    </text>
                </g>
            </g>
        </g>
    </g>
</svg>